<svg xmlns="http://www.w3.org/2000/svg" xmlns:xlink="http://www.w3.org/1999/xlink" xmlns:lucid="lucid" width="1839" height="1291.2"><g transform="translate(-20 -20)" lucid:page-tab-id="0_0"><path d="M0 0h1870.4v1323.2H0z" fill="#fff"/><path d="M260 142c0-16.57 13.43-30 30-30h1380c16.57 0 30 13.43 30 30v1119.2c0 16.57-13.43 30-30 30H290c-16.57 0-30-13.43-30-30z" stroke="#474747" fill-opacity="0"/><path d="M368 114.4v3.54c0 6.42-7.1 13.05-15.76 13.05h-46.48c-8.66 0-15.75-6.64-15.75-13.06v-3.54z" fill="#9d5125"/><path d="M320.03 80c8.03 0 14.82 4.4 18.17 11.67 4.6-3.14 10.92-1.98 14.04 2.65 1.17 1.64 1.7 3.32 1.8 5.3 7.87.68 13.95 8.25 13.95 14.27v1.3c0 6.45-7.1 13-15.76 13h-46.5c-8.64 0-15.74-6.55-15.74-13v-1.3c0-5.02 4.2-11.87 10.06-13.56v-.57c.08-10.95 8.97-19.82 19.97-19.77z" fill="#f58535"/><path d="M309.54 103.13l-5.2 18.2h3.04l1.17-4.43h5.38l1.1 4.43h3.05l-4.8-18.2zm-.47 11.4l2.22-8.98 2.1 8.97zM331.2 117.34h-.03l-2.47-14.2h-3.1l-2.4 14.13h-.06l-2.4-14.14h-2.95l3.53 18.2h3.38l2.35-13.7h.06l2.36 13.7h3.4l3.64-18.2h-2.9l-2.4 14.2zM345.9 111.4l-1.98-.72c-1.93-.7-2.74-1.53-2.74-3.1-.17-1.26.74-2.43 2-2.6.16-.02.3-.02.45-.02 1.26-.17 2.4.72 2.58 1.96.04.25.03.44 0 .68v.38h2.93v-.4c0-1.9-.5-4.8-5.18-4.8-3.44 0-5.7 1.84-5.7 5.16 0 2.6 1.1 3.97 3.82 5l2 .68c1.6.23 2.73 1.6 2.64 3.2.04 1.45-1.08 2.64-2.5 2.68h-.28c-2 0-3-1.12-3-3.33v-.47h-2.9v.44c0 2.54 1.02 5.53 5.52 5.53 3.7 0 6.07-1.6 6.07-5.48.04-2.5-1.1-3.9-3.7-4.8z" fill="#fff"/><use xlink:href="#a" transform="matrix(1,0,0,1,260,1261.1999999999998) translate(700.0987654320987 12.88888888888889)"/><path d="M400 202c0-16.57 13.43-30 30-30h1200c16.57 0 30 13.43 30 30v1008c0 16.57-13.43 30-30 30H430c-16.57 0-30-13.43-30-30z" stroke="#474747" fill-opacity="0"/><path d="M508 174.4v3.54c0 6.42-7.1 13.05-15.76 13.05h-46.48c-8.66 0-15.75-6.64-15.75-13.06v-3.54z" fill="#9d5125"/><path d="M460.03 140c8.03 0 14.82 4.4 18.17 11.67 4.6-3.14 10.92-1.98 14.04 2.65 1.17 1.64 1.7 3.32 1.8 5.3 7.87.68 13.95 8.25 13.95 14.27v1.3c0 6.45-7.1 13-15.76 13h-46.5c-8.64 0-15.74-6.55-15.74-13v-1.3c0-5.02 4.2-11.87 10.06-13.56v-.57c.08-10.95 8.97-19.82 19.97-19.77z" fill="#f58535"/><path d="M448.9 163.13h3.08l3.1 14.58 3.32-14.54h3.1l-4.6 18.2h-3.7zM463.37 163.13h5.77c3.5 0 5.04 2.2 5.04 5.3 0 3.1-1.9 5.4-5.33 5.4h-2.57v7.53h-2.9zm2.9 8.5h2.08c1.56 0 2.9-.83 2.9-3.14 0-1.98-.78-3.17-3.1-3.17h-1.87zM487.8 174.83v.38c0 3.32-1.3 6.52-5.6 6.52-4.6 0-6.04-2.97-6.04-9.47s1.43-9.46 6.05-9.46c5.2 0 5.54 3.8 5.54 5.7v.37h-2.9v-.3c0-1.7-.5-3.64-2.6-3.57-2.08.08-3.1 1.35-3.1 7.22 0 5.87.92 7.3 3.14 7.3 2.42 0 2.7-2.7 2.7-4.42v-.3z" fill="#fff"/><use xlink:href="#b" transform="matrix(1,0,0,1,400,1210) translate(559.4320987654321 12.88888888888889)"/><use xlink:href="#c" transform="matrix(1,0,0,1,400,1210) translate(600.8641975308642 12.88888888888889)"/><use xlink:href="#d" transform="matrix(1,0,0,1,400,1210) translate(611.679012345679 12.88888888888889)"/><path d="M480 810c0-16.57 13.43-30 30-30h1080c16.57 0 30 13.43 30 30v340c0 16.57-13.43 30-30 30H510c-16.57 0-30-13.43-30-30z" fill-opacity="0"/><path d="M495.04 784.1l3.17-1.7 4.72-1.56 4.93-.76L510 780h15m15 0h30m15 0h30m15 0h30m15 0h30m15 0h30m15 0h30m15 0h30m15 0h30m15 0h30m15 0h30m15 0h30m15 0h30m15 0h30m15 0h30m15 0h30m15 0h30m15 0h30m15 0h30m15 0h30m15 0h30m15 0h30m15 0h30m15 0h30m15 0h15l5 .42 4.82 1.22 4.54 2 .6.42m10.95 10.98l1.7 3.17 1.56 4.72.76 4.93.08 2.15v14.17m0 14.16v28.34m0 14.16v28.34m0 14.16v28.34m0 14.16v28.34m0 14.16v28.34m0 14.16v28.34m0 14.16v28.34m0 14.16V1150l-.42 5-1.22 4.82-2 4.54-.42.6m-10.98 10.95l-3.17 1.7-4.72 1.56-4.93.76-2.15.08h-15m-15 0h-30m-15 0h-30m-15 0h-30m-15 0h-30m-15 0h-30m-15 0h-30m-15 0h-30m-15 0h-30m-15 0h-30m-15 0h-30m-15 0h-30m-15 0h-30m-15 0h-30m-15 0h-30m-15 0h-30m-15 0h-30m-15 0h-30m-15 0h-30m-15 0h-30m-15 0h-30m-15 0h-30m-15 0h-30m-15 0h-30m-15 0h-15l-5-.42-4.82-1.22-4.54-2-.6-.42m-10.95-10.98l-1.7-3.17-1.56-4.72-.76-4.93-.08-2.15v-14.17m0-14.16v-28.34m0-14.16v-28.34m0-14.16v-28.34m0-14.16v-28.34m0-14.16v-28.34m0-14.16v-28.34m0-14.16v-28.34m0-14.16V810l.42-5 1.22-4.82 2-4.54.42-.6" stroke="#f7981f" stroke-width="3" fill="none"/><use xlink:href="#e" transform="matrix(1,0,0,1,479.99999999999994,1150) translate(498.22222222222223 12.88888888888889)"/><use xlink:href="#f" transform="matrix(1,0,0,1,479.99999999999994,1150) translate(586.5185185185185 12.88888888888889)"/><use xlink:href="#g" transform="matrix(1,0,0,1,479.99999999999994,1150) translate(631.9012345679012 12.88888888888889)"/><path d="M480 210c0-16.57 13.43-30 30-30h1080c16.57 0 30 13.43 30 30v360c0 16.57-13.43 30-30 30H510c-16.57 0-30-13.43-30-30z" fill-opacity="0"/><path d="M495.04 184.1l3.17-1.7 4.72-1.56 4.93-.76L510 180h15m15 0h30m15 0h30m15 0h30m15 0h30m15 0h30m15 0h30m15 0h30m15 0h30m15 0h30m15 0h30m15 0h30m15 0h30m15 0h30m15 0h30m15 0h30m15 0h30m15 0h30m15 0h30m15 0h30m15 0h30m15 0h30m15 0h30m15 0h30m15 0h15l5 .42 4.82 1.22 4.54 2 .6.42m10.95 10.98l1.7 3.17 1.56 4.72.76 4.93.08 2.15v15m0 15v30m0 15v30m0 15v30m0 15v30m0 15v30m0 15v30m0 15v30m0 15v15l-.42 5-1.22 4.82-2 4.54-.42.6m-10.98 10.95l-3.17 1.7-4.72 1.56-4.93.76-2.15.08h-15m-15 0h-30m-15 0h-30m-15 0h-30m-15 0h-30m-15 0h-30m-15 0h-30m-15 0h-30m-15 0h-30m-15 0h-30m-15 0h-30m-15 0h-30m-15 0h-30m-15 0h-30m-15 0h-30m-15 0h-30m-15 0h-30m-15 0h-30m-15 0h-30m-15 0h-30m-15 0h-30m-15 0h-30m-15 0h-30m-15 0h-30m-15 0h-15l-5-.42-4.82-1.22-4.54-2-.6-.42m-10.95-10.98l-1.7-3.17-1.56-4.72-.76-4.93L480 570v-15m0-15v-30m0-15v-30m0-15v-30m0-15v-30m0-15v-30m0-15v-30m0-15v-30m0-15v-15l.42-5 1.22-4.82 2-4.54.42-.6" stroke="#f7981f" stroke-width="3" fill="none"/><use xlink:href="#e" transform="matrix(1,0,0,1,480,570) translate(498.22222222222223 12.88888888888889)"/><use xlink:href="#f" transform="matrix(1,0,0,1,480,570) translate(586.5185185185185 12.88888888888889)"/><use xlink:href="#h" transform="matrix(1,0,0,1,480,570) translate(631.9012345679012 12.88888888888889)"/><path d="M124.32 681.06c9.22 0 15.67 6.07 15.67 14.7v18.78h-8.1V701.8h-2.24v12.74H117.2c-.84-9.52-8.2-15.98-18.55-15.98h-7.18v-5.2c7.9-.74 14.26-3.92 14.94-12.33h.74zM72.8 681.04h.76c.73 8.42 7.03 11.6 14.94 12.34v5.17h-7.03c-10.33 0-17.75 6.5-18.53 16H50.72V701.8H48.5v12.74H40v-18.8c0-8.7 6.45-14.73 15.7-14.73z" fill="#7d7c7c"/><path d="M98.58 706.46c9.22 0 15.67 6.07 15.67 14.72v18.8h-8.15v-12.76h-2.18v12.74H76.36v-12.74h-2.14v12.74h-8.5v-18.78c0-8.65 6.46-14.72 15.68-14.72zM64.22 644.4l13.6 10.07v4.38c.08 7.93-5.98 14.4-13.57 14.5h-.03c-7.45 0-13.6-6.48-13.6-15.14v-3.8zM115.72 644.4l13.6 10.07v4.38c.08 7.93-5.98 14.4-13.57 14.5h-.03c-7.45 0-13.6-6.48-13.6-15.14v-3.8zM90 664.2l12 8.88v3.9c.12 7.03-5.24 12.8-11.96 12.94H90c-6.8-.18-12.2-6.04-12.02-13.14 0-.1 0-.18.02-.28V673z" fill="#7d7c7c"/><path d="M115.74 640c7.64-.14 13.96 6.22 14.1 14.2.14 8-5.96 14.6-13.6 14.75-7.65.14-13.97-6.22-14.1-14.2v-.3c-.07-7.9 6-14.4 13.6-14.45zM89.97 659.73c6.78-.15 12.4 5.44 12.58 12.53.15 7.1-5.2 12.97-12 13.15-6.78.16-12.4-5.43-12.58-12.52v-.3c-.07-7.02 5.28-12.75 12-12.85zM124.32 676.6c9.22 0 15.67 6.06 15.67 14.72v18.82h-8.1V697.4h-2.24v12.74H117.2c-.84-9.53-8.2-15.97-18.55-15.97h-7.18v-1.64c8.1-.84 14.26-7.42 14.94-15.87h.74zM72.8 676.6h.76c.68 8.48 6.84 15.05 14.94 15.9v1.6h-7.03c-10.33 0-17.75 6.5-18.53 16H50.72v-12.7H48.5v12.73H40v-18.8c0-8.7 6.45-14.73 15.7-14.73z" fill="#d2d3d3"/><path d="M98.58 702.06c9.22 0 15.67 6.07 15.67 14.72v18.8h-8.15v-12.73h-2.18v12.74H76.36v-12.75h-2.14v12.74h-8.5v-18.82c0-8.65 6.46-14.72 15.68-14.72zM64.23 640c7.64-.14 13.96 6.22 14.1 14.2.14 8-5.96 14.6-13.6 14.75-7.65.14-13.97-6.22-14.1-14.2v-.3c-.07-7.9 6-14.36 13.6-14.45z" fill="#d2d3d3"/><use xlink:href="#i" transform="matrix(1,0,0,1,40,740) translate(22.870370370370374 17.77777777777778)"/><path d="M1747.98 660.82l-7.98 4V735l7.98 3.98 19.54-39.1-19.54-39.08z" fill="#8c3123"/><path d="M1789.48 728.9l-41.52 10.1V660.8l41.52 10.08 19.63 29.08-19.62 28.92z" fill="#e05243"/><path d="M1789.5 728.9l41.53 10.1 7.16-38.08-7.17-40.1-41.53 10.08v58z" fill="#8c3123"/><path d="M1831 660.82l8 4V735l-8 3.98v-78.18z" fill="#e05243"/><path d="M1771.38 712.84l18.12 2.33 14.35-15.14-14.35-15.14-18.12 2.26v25.68z" fill="#8c3123"/><path d="M1807.6 674.74l-18.1 3.3-18.12-3.3 18.1-34.74 18.12 34.74z" fill="#5e1f18"/><path d="M1807.6 725.25l-18.1-3.35-18.12 3.35 18.1 34.74 18.12-34.75z" fill="#f2b0a9"/><path d="M1807.6 674.75l-18.1-4.48V640l18.1 9.07v25.68z" fill="#e05243"/><path d="M1771.38 674.75l18.1-4.48V640l-18.1 9.07v25.68z" fill="#8c3123"/><path d="M1789.5 760l18.1-9.08v-25.68l-18.1 4.48V760z" fill="#e05243"/><path d="M1789.5 760l-18.12-9.08v-25.68l18.1 4.48V760z" fill="#8c3123"/><path d="M1807.6 712.84l-18.1 2.33V684.9l18.1 2.26v25.68z" fill="#e05243"/><use xlink:href="#j" transform="matrix(1,0,0,1,1740,760) translate(8.79012345679012 17.77777777777778)"/><use xlink:href="#k" transform="matrix(1,0,0,1,1740,760) translate(35.91975308641975 44.44444444444444)"/><path d="M540 262c0-16.57 13.43-30 30-30h140c16.57 0 30 13.43 30 30v268c0 16.57-13.43 30-30 30H570c-16.57 0-30-13.43-30-30z" stroke="#474747" fill-opacity="0"/><path d="M601.97 220.24v-5.9c0-7.25-5.88-13.13-13.12-13.13-7.24 0-13.12 5.9-13.12 13.14v5.9h6.64v-5.9c0-3.58 2.9-6.5 6.48-6.5 3.57 0 6.48 2.92 6.48 6.5v5.9h6.64z" fill="#876a22"/><path d="M601.98 220.26h5.42v20.83H570v-20.84h5.72v-7.1c0-7.28 5.87-13.16 13.13-13.16 7.26 0 13.13 5.88 13.13 13.15v7.1zm-6.66 0v-7.1c0-3.6-2.88-6.5-6.47-6.5-3.6 0-6.47 2.9-6.47 6.5v7.1h12.94z" fill="#daa835"/><path d="M570 241.1h37.4v.9H570z" fill="#876a22"/><use xlink:href="#l" transform="matrix(1,0,0,1,540,530) translate(37.827160493827186 12.88888888888889)"/><use xlink:href="#m" transform="matrix(1,0,0,1,540,530) translate(91.06172839506173 12.88888888888889)"/><use xlink:href="#n" transform="matrix(1,0,0,1,540,530) translate(152.29629629629628 12.88888888888889)"/><path d="M540 842c0-16.57 13.43-30 30-30h140c16.57 0 30 13.43 30 30v268c0 16.57-13.43 30-30 30H570c-16.57 0-30-13.43-30-30z" stroke="#474747" fill-opacity="0"/><path d="M601.97 800.24v-5.9c0-7.25-5.88-13.13-13.12-13.13-7.24 0-13.12 5.9-13.12 13.14v5.9h6.64v-5.9c0-3.58 2.9-6.5 6.48-6.5 3.57 0 6.48 2.92 6.48 6.5v5.9h6.64z" fill="#876a22"/><path d="M601.98 800.26h5.42v20.83H570v-20.84h5.72v-7.1c0-7.28 5.87-13.16 13.13-13.16 7.26 0 13.13 5.88 13.13 13.15v7.1zm-6.66 0v-7.1c0-3.6-2.88-6.5-6.47-6.5-3.6 0-6.47 2.9-6.47 6.5v7.1h12.94z" fill="#daa835"/><path d="M570 821.1h37.4v.9H570z" fill="#876a22"/><use xlink:href="#l" transform="matrix(1,0,0,1,540,1110) translate(37.827160493827186 12.88888888888889)"/><use xlink:href="#m" transform="matrix(1,0,0,1,540,1110) translate(91.06172839506173 12.88888888888889)"/><use xlink:href="#o" transform="matrix(1,0,0,1,540,1110) translate(152.29629629629628 12.88888888888889)"/><path d="M300 691.97c0 26.5-22.4 48.02-50 48.02s-50-21.53-50-48.03 22.4-48.03 50-48.03 50 21.52 50 48.02z" fill="#9d5025"/><path d="M200 688.02h100v3.94H200v-3.94z" fill="#9d5025"/><path d="M300 688.02c0 26.5-22.4 48.03-50 48.03s-50-21.52-50-48.02c0-26.5 22.4-48.03 50-48.03s50 21.52 50 48.02z" fill="#f58536"/><path d="M212.3 692.8v-1.25c.38-5.82 3.77-10.67 9.26-13.22.53-10.72 10.02-19 21.24-18.43 7 .32 12.88 3.74 16.42 9.56 5.73-2.3 12.28.23 14.7 5.7.37.77.6 1.42.74 2.2 7.54 1.44 12.96 8.37 12.96 14.2v1.15c0 7.12-7.68 13.36-16.42 13.36h-42.56c-8.66.05-16.34-6.2-16.34-13.26z" fill="#fff"/><path d="M260.24 674.57l-3.2 2.1-1.62-3.37c-2.48-5.28-7.56-8.52-13.62-8.56h-.06c-8.28 0-15.05 6.48-15.05 14.5v2.7l-2.36.64c-3.97 1.53-6.57 4.88-6.9 9v1.16c0 3.9 4.95 8.4 11.27 8.4h42.6c6.4 0 11.28-4.5 11.28-8.4v-1.17c0-3.93-4.56-9.06-9.84-9.46l-2.86-.2-.2-2.74c0-1.17-.4-2.1-1.04-3.06-1.9-2.66-5.67-3.3-8.4-1.5z" fill="#f58536"/><use xlink:href="#p" transform="matrix(1,0,0,1,200,740) translate(32.24691358024692 14.222222222222218)"/><path d="M680 361.57c0 21.2-17.92 38.42-40 38.42s-40-17.22-40-38.43c0-21.2 17.92-38.42 40-38.42s40 17.2 40 38.42z" fill="#9d5025"/><path d="M680 358.42c0 21.2-17.92 38.42-40 38.42s-40-17.2-40-38.42c0-21.2 17.92-38.42 40-38.42s40 17.2 40 38.42z" fill="#f58536"/><path d="M650.82 340.58h4.22v35.66h-4.22v-35.66zM662.7 349.6l11.03 8.64-11.04 9V349.6z" fill="#fff"/><path d="M623.64 356.4l2.43 1.87-2.68 2.17h41.14v-4.04h-40.9zM623.4 342.6h31.64v-4.04h-31.4l2.4 1.88-2.65 2.17zM626.05 376.1l-2.66 2.17h31.64v-4.05h-31.4l2.4 1.88zM614.6 351.36l8.83 6.9-8.83 7.2v-14.1zM614.6 333.53l8.83 6.9-8.83 7.2v-14.1zM614.6 369.2l8.83 6.9-8.83 7.2v-14.1z" fill="#fff"/><use xlink:href="#q" transform="matrix(1,0,0,1,600,400) translate(2.3950617283950777 14.222222222222218)"/><use xlink:href="#r" transform="matrix(1,0,0,1,600,400) translate(43.827160493827165 14.222222222222218)"/><use xlink:href="#s" transform="matrix(1,0,0,1,600,400) translate(6.938271604938286 35.55555555555554)"/><path d="M299.8 677.76h42.9" stroke="#5e5e5e" stroke-width="2" fill="none"/><path d="M299.82 678.76h-.8l-.45-2h1.25z" fill="#5e5e5e"/><path d="M357.95 677.76l-14.26 4.64v-9.28z" stroke="#5e5e5e" stroke-width="2" fill="#5e5e5e"/><path d="M134 678.77h48.43" stroke="#5e5e5e" stroke-width="2" fill="none"/><path fill="#5e5e5e"/><path d="M197.7 678.77l-14.27 4.63v-9.27z" stroke="#5e5e5e" stroke-width="2" fill="#5e5e5e"/><path d="M460 691.97c0 26.5-22.4 48.02-50 48.02s-50-21.53-50-48.03 22.4-48.03 50-48.03 50 21.52 50 48.02z" fill="#9d5025"/><path d="M460 688.02c0 26.5-22.4 48.03-50 48.03s-50-21.52-50-48.02c0-26.5 22.4-48.03 50-48.03s50 21.52 50 48.02z" fill="#f58536"/><path d="M367.96 674h18.15v28.04h-18.14V674zM425.98 654.86h16.2v15.56h-16.2v-15.56zM425.98 680.24h16.2v15.56h-16.2v-15.56zM425.98 705.64h16.2v15.56h-16.2v-15.56z" fill="#fff"/><path d="M421.5 690.06l2.7-1.24 1.78-.84-1.77-.85-2.4-1.14-7.22-3.44V686h-21.7l24.67-15.2 1.95 2.93 4.08-6.66 1.2-1.93 1.2-1.94-2.3.25-2.62.3-7.72.9 1.86 2.72L384.95 686l-3.33 2.02 4 2.44 29.58 18.22-1.86 2.73 7.72.9 2.6.3 2.32.25-1.2-1.94-1.2-1.92-4.08-6.66-1.95 2.93-24.66-15.2h21.68v3.34l6.92-3.34z" fill="#fff"/><use xlink:href="#t" transform="matrix(1,0,0,1,360,740) translate(1.6543209876543372 14.222222222222218)"/><use xlink:href="#u" transform="matrix(1,0,0,1,360,740) translate(58.839506172839506 14.222222222222218)"/><use xlink:href="#v" transform="matrix(1,0,0,1,360,740) translate(14.987654320987666 35.55555555555554)"/><path d="M500 48c0-4.42 3.58-8 8-8h836.75c4.42 0 8 3.58 8 8v25.16c0 4.4-3.58 8-8 8H508c-4.42 0-8-3.6-8-8z" stroke="#000" stroke-opacity="0" stroke-width="2" fill="#fff" fill-opacity="0"/><use xlink:href="#w" transform="matrix(1,0,0,1,504,44) translate(317.5340740740741 25.782777777777778)"/><path d="M732.43 79.8h402.9M732.46 79.8h-1.03M1135.3 79.8h1.02" stroke="#a9afb8" stroke-width="2" fill="none"/><path d="M500 89.16c0-4.42 3.58-8 8-8h837.7c4.43 0 8 3.58 8 8V92c0 4.42-3.57 8-8 8H508c-4.42 0-8-3.58-8-8z" stroke="#000" stroke-opacity="0" stroke-width="2" fill="#fff" fill-opacity="0"/><use xlink:href="#x" transform="matrix(1,0,0,1,504.00000000000045,85.15522395689881) translate(296.1002777777778 14.917037037037037)"/><use xlink:href="#y" transform="matrix(1,0,0,1,504.00000000000045,85.15522395689881) translate(350.40212962962966 14.917037037037037)"/><use xlink:href="#z" transform="matrix(1,0,0,1,504.00000000000045,85.15522395689881) translate(432.7471913580247 14.917037037037037)"/><use xlink:href="#A" transform="matrix(1,0,0,1,504.00000000000045,85.15522395689881) translate(445.19667695473254 14.917037037037037)"/><use xlink:href="#B" transform="matrix(1,0,0,1,504.00000000000045,85.15522395689881) translate(497.0341255144033 14.917037037037037)"/><use xlink:href="#C" transform="matrix(1,0,0,1,504.00000000000045,85.15522395689881) translate(522.5279526748972 14.917037037037037)"/><path d="M800 262c0-16.57 13.43-30 30-30h600c16.57 0 30 13.43 30 30v268c0 16.57-13.43 30-30 30H830c-16.57 0-30-13.43-30-30z" stroke="#474747" fill-opacity="0"/><path d="M861.97 220.24v-5.9c0-7.25-5.88-13.13-13.12-13.13-7.24 0-13.12 5.9-13.12 13.14v5.9h6.64v-5.9c0-3.58 2.9-6.5 6.48-6.5 3.57 0 6.48 2.92 6.48 6.5v5.9h6.64z" fill="#876a22"/><path d="M861.98 220.26h5.42v20.83H830v-20.84h5.72v-7.1c0-7.28 5.87-13.16 13.13-13.16 7.26 0 13.13 5.88 13.13 13.15v7.1zm-6.66 0v-7.1c0-3.6-2.88-6.5-6.47-6.5-3.6 0-6.47 2.9-6.47 6.5v7.1h12.94z" fill="#daa835"/><path d="M830 241.1h37.4v.9H830z" fill="#876a22"/><use xlink:href="#D" transform="matrix(1,0,0,1,800,530) translate(264.3703703703704 12.88888888888889)"/><use xlink:href="#m" transform="matrix(1,0,0,1,800,530) translate(324.51851851851853 12.88888888888889)"/><use xlink:href="#n" transform="matrix(1,0,0,1,800,530) translate(385.75308641975306 12.88888888888889)"/><path d="M820 842c0-16.57 13.43-30 30-30h600c16.57 0 30 13.43 30 30v268c0 16.57-13.43 30-30 30H850c-16.57 0-30-13.43-30-30z" stroke="#474747" fill-opacity="0"/><path d="M881.97 800.24v-5.9c0-7.25-5.88-13.13-13.12-13.13-7.24 0-13.12 5.9-13.12 13.14v5.9h6.64v-5.9c0-3.58 2.9-6.5 6.48-6.5 3.57 0 6.48 2.92 6.48 6.5v5.9h6.64z" fill="#876a22"/><path d="M881.98 800.26h5.42v20.83H850v-20.84h5.72v-7.1c0-7.28 5.87-13.16 13.13-13.16 7.26 0 13.13 5.88 13.13 13.15v7.1zm-6.66 0v-7.1c0-3.6-2.88-6.5-6.47-6.5-3.6 0-6.47 2.9-6.47 6.5v7.1h12.94z" fill="#daa835"/><path d="M850 821.1h37.4v.9H850z" fill="#876a22"/><use xlink:href="#D" transform="matrix(1,0,0,1,820,1110) translate(264.3703703703704 12.88888888888889)"/><use xlink:href="#m" transform="matrix(1,0,0,1,820,1110) translate(324.51851851851853 12.88888888888889)"/><use xlink:href="#o" transform="matrix(1,0,0,1,820,1110) translate(385.75308641975306 12.88888888888889)"/><path d="M880 290c0-16.57 13.43-30 30-30h312.75c16.57 0 30 13.43 30 30v780c0 16.57-13.43 30-30 30H910c-16.57 0-30-13.43-30-30z" fill-opacity="0"/><path d="M888.1 269.67l1.5-1.64m9.46-5.9l3.86-1.3 4.93-.75L910 260h14.9m14.9 0h2.96m14.9 0h29.78m14.9 0h2.97m14.9 0h29.8m14.9 0h2.96m14.9 0h29.78m14.9 0h2.97m14.9 0h29.8m14.9 0h2.96m14.9 0h14.9l5 .42 4.8 1.22 1.12.5m9.4 5.95l1.64 1.5m5.9 9.46l1.3 3.86.75 4.93.08 2.15v15.48m0 15.47v3.1m0 15.47v30.96m0 15.47v3.1m0 15.47v30.96m0 15.47v3.1m0 15.47v30.96m0 15.47v3.1m0 15.47v30.96m0 15.47v3.1m0 15.47v30.96m0 15.47v3.1m0 15.47v30.96m0 15.47v3.1m0 15.47v30.96m0 15.47v3.1m0 15.47v30.96m0 15.47v3.1m0 15.47v30.96m0 15.47v3.1m0 15.47v30.96m0 15.47v3.1m0 15.47v30.96m0 15.47v3.1m0 15.47V1070l-.42 5-1.22 4.82-.5 1.1m-5.94 9.4l-1.52 1.65m-9.45 5.9l-3.87 1.3-4.93.75-2.15.08h-14.9m-14.9 0H1190m-14.9 0h-29.8m-14.9 0h-2.96m-14.9 0h-29.78m-14.9 0h-2.97m-14.9 0h-29.8m-14.9 0h-2.96m-14.9 0h-29.78m-14.9 0h-2.97m-14.9 0H910l-5-.42-4.82-1.22-1.1-.5m-9.4-5.95l-1.65-1.5m-5.9-9.46l-1.3-3.86-.75-4.93-.08-2.15v-15.48m0-15.47v-3.1m0-15.47v-30.96m0-15.47v-3.1m0-15.47v-30.96m0-15.47v-3.1m0-15.47v-30.96m0-15.47v-3.1m0-15.47v-30.96m0-15.47v-3.1m0-15.47v-30.96m0-15.47v-3.1m0-15.47v-30.96m0-15.47v-3.1m0-15.47v-30.96m0-15.47v-3.1m0-15.47v-30.96m0-15.47v-3.1m0-15.47v-30.96m0-15.47v-3.1m0-15.47v-30.96m0-15.47v-3.1m0-15.47v-30.96m0-15.47v-3.1m0-15.47V290l.42-5 1.22-4.82.5-1.1" stroke="#d2d3d3" stroke-width="3" fill="none"/><use xlink:href="#E" transform="matrix(1,0,0,1,880,1070) translate(111.51234567901238 12.88888888888889)"/><use xlink:href="#F" transform="matrix(1,0,0,1,880,1070) translate(152.99382716049385 12.88888888888889)"/><use xlink:href="#G" transform="matrix(1,0,0,1,880,1070) translate(216.10493827160494 12.88888888888889)"/><path d="M923.98 334.9l-3.98 1.65v46.9l3.98 1.65 16.14-23.9-16.14-26.3z" fill="#9d5025"/><path d="M933.27 383.3l-9.3 1.8v-50.2l9.3 1.75v46.64z" fill="#f58536"/><path d="M928.38 333.05l4.9-2.03 23.26 31.06-23.26 26.88-4.9-2.03v-53.88z" fill="#9d5025"/><path d="M944.86 386.24l-11.58 2.72v-57.94l11.58 2.73v52.5z" fill="#f58536"/><path d="M938.73 328.75l6.15-2.57 34.3 39.3-34.3 28.32-6.15-2.57v-62.48z" fill="#9d5025"/><path d="M959.73 389.27l-14.86 4.53v-67.62l14.86 4.53v58.57z" fill="#f58536"/><path d="M951.8 323.28l7.94-3.28 37.12 42.24L959.74 400l-7.93-3.28v-73.44z" fill="#9d5025"/><path d="M999.5 383.44L959.72 400v-80l39.76 16.56v46.88z" fill="#f58536"/><use xlink:href="#H" transform="matrix(1,0,0,1,920,400) translate(7.432098765432109 14.222222222222218)"/><use xlink:href="#I" transform="matrix(1,0,0,1,920,400) translate(22.740740740740748 35.55555555555554)"/><path d="M1083.98 334.9l-3.98 1.65v46.9l3.98 1.65 16.14-23.9-16.14-26.3z" fill="#9d5025"/><path d="M1093.27 383.3l-9.3 1.8v-50.2l9.3 1.75v46.64z" fill="#f58536"/><path d="M1088.38 333.05l4.9-2.03 23.26 31.06-23.26 26.88-4.9-2.03v-53.88z" fill="#9d5025"/><path d="M1104.86 386.24l-11.58 2.72v-57.94l11.58 2.73v52.5z" fill="#f58536"/><path d="M1098.73 328.75l6.15-2.57 34.3 39.3-34.3 28.32-6.15-2.57v-62.48z" fill="#9d5025"/><path d="M1119.73 389.27l-14.86 4.53v-67.62l14.86 4.53v58.57z" fill="#f58536"/><path d="M1111.8 323.28l7.94-3.28 37.12 42.24-37.12 37.76-7.93-3.28v-73.44z" fill="#9d5025"/><path d="M1159.5 383.44L1119.72 400v-80l39.76 16.56v46.88z" fill="#f58536"/><use xlink:href="#H" transform="matrix(1,0,0,1,1080,400) translate(7.432098765432109 14.222222222222218)"/><use xlink:href="#I" transform="matrix(1,0,0,1,1080,400) translate(22.740740740740748 35.55555555555554)"/><path d="M923.98 914.9l-3.98 1.65v46.9l3.98 1.65 16.14-23.9-16.14-26.3z" fill="#9d5025"/><path d="M933.27 963.3l-9.3 1.8v-50.2l9.3 1.75v46.64z" fill="#f58536"/><path d="M928.38 913.05l4.9-2.03 23.26 31.06-23.26 26.88-4.9-2.03v-53.88z" fill="#9d5025"/><path d="M944.86 966.24l-11.58 2.72v-57.94l11.58 2.73v52.5z" fill="#f58536"/><path d="M938.73 908.75l6.15-2.57 34.3 39.3-34.3 28.32-6.15-2.57v-62.48z" fill="#9d5025"/><path d="M959.73 969.27l-14.86 4.53v-67.62l14.86 4.53v58.57z" fill="#f58536"/><path d="M951.8 903.28l7.94-3.28 37.12 42.24L959.74 980l-7.93-3.28v-73.44z" fill="#9d5025"/><path d="M999.5 963.44L959.72 980v-80l39.76 16.56v46.88z" fill="#f58536"/><use xlink:href="#H" transform="matrix(1,0,0,1,920,980) translate(7.432098765432109 14.222222222222218)"/><use xlink:href="#I" transform="matrix(1,0,0,1,920,980) translate(22.740740740740748 35.55555555555554)"/><path d="M1083.98 914.9l-3.98 1.65v46.9l3.98 1.65 16.14-23.9-16.14-26.3z" fill="#9d5025"/><path d="M1093.27 963.3l-9.3 1.8v-50.2l9.3 1.75v46.64z" fill="#f58536"/><path d="M1088.38 913.05l4.9-2.03 23.26 31.06-23.26 26.88-4.9-2.03v-53.88z" fill="#9d5025"/><path d="M1104.86 966.24l-11.58 2.72v-57.94l11.58 2.73v52.5z" fill="#f58536"/><path d="M1098.73 908.75l6.15-2.57 34.3 39.3-34.3 28.32-6.15-2.57v-62.48z" fill="#9d5025"/><path d="M1119.73 969.27l-14.86 4.53v-67.62l14.86 4.53v58.57z" fill="#f58536"/><path d="M1111.8 903.28l7.94-3.28 37.12 42.24-37.12 37.76-7.93-3.28v-73.44z" fill="#9d5025"/><path d="M1159.5 963.44L1119.72 980v-80l39.76 16.56v46.88z" fill="#f58536"/><use xlink:href="#H" transform="matrix(1,0,0,1,1080,980) translate(7.432098765432109 14.222222222222218)"/><use xlink:href="#I" transform="matrix(1,0,0,1,1080,980) translate(22.740740740740748 35.55555555555554)"/><path d="M680 941.57c0 21.2-17.92 38.42-40 38.42s-40-17.22-40-38.43c0-21.2 17.92-38.42 40-38.42s40 17.2 40 38.42z" fill="#9d5025"/><path d="M680 938.42c0 21.2-17.92 38.42-40 38.42s-40-17.2-40-38.42c0-21.2 17.92-38.42 40-38.42s40 17.2 40 38.42z" fill="#f58536"/><path d="M650.82 920.58h4.22v35.66h-4.22v-35.66zM662.7 929.6l11.03 8.64-11.04 9V929.6z" fill="#fff"/><path d="M623.64 936.4l2.43 1.87-2.68 2.17h41.14v-4.04h-40.9zM623.4 922.6h31.64v-4.04h-31.4l2.4 1.88-2.65 2.17zM626.05 956.1l-2.66 2.17h31.64v-4.05h-31.4l2.4 1.88zM614.6 931.36l8.83 6.9-8.83 7.2v-14.1zM614.6 913.53l8.83 6.9-8.83 7.2v-14.1zM614.6 949.2l8.83 6.9-8.83 7.2v-14.1z" fill="#fff"/><use xlink:href="#q" transform="matrix(1,0,0,1,600,980) translate(2.3950617283950777 14.222222222222218)"/><use xlink:href="#r" transform="matrix(1,0,0,1,600,980) translate(43.827160493827165 14.222222222222218)"/><use xlink:href="#s" transform="matrix(1,0,0,1,600,980) translate(6.938271604938286 35.55555555555554)"/><path d="M927.38 926.74H696.62" stroke="#5e5e5e" stroke-width="2" fill="none"/><path d="M931.38 927.74h-3v-2h3z" fill="#5e5e5e"/><path d="M681.35 926.74l14.27-4.64v9.27z" stroke="#5e5e5e" stroke-width="2" fill="#5e5e5e"/><path d="M927.38 370h-229.9" stroke="#5e5e5e" stroke-width="2" fill="none"/><path d="M931.38 371h-3v-2h3z" fill="#5e5e5e"/><path d="M682.23 370l14.26-4.64v9.28z" stroke="#5e5e5e" stroke-width="2" fill="#5e5e5e"/><path d="M600.03 370h-316.8c-3.32 0-6 2.7-6 6v253.3" stroke="#5e5e5e" stroke-width="2" fill="none"/><path d="M601.3 371H600v-2h.76z" fill="#5e5e5e"/><path d="M277.23 644.58l-4.64-14.27h9.26z" stroke="#5e5e5e" stroke-width="2" fill="#5e5e5e"/><path d="M601.04 926.48H284.28c-3.3 0-6-2.68-6-6V750.03" stroke="#5e5e5e" stroke-width="2" fill="none"/><path d="M601.72 927.48h-.7v-2h1.34z" fill="#5e5e5e"/><path d="M278.28 734.77l4.64 14.26h-9.27z" stroke="#5e5e5e" stroke-width="2" fill="#5e5e5e"/><path d="M453.63 662.94h579.86c3.3 0 6-2.7 6-6V376c0-3.3-2.7-6-6-6H1018" stroke="#5e5e5e" stroke-width="2" fill="none"/><path d="M453.66 663.94h-.45l-.6-1.08-.67-.92h1.73z" fill="#5e5e5e"/><path d="M1002.73 370l14.26-4.64v9.28z" stroke="#5e5e5e" stroke-width="2" fill="#5e5e5e"/><path d="M450.86 720.87h582.63c3.3 0 6 2.7 6 6V944c0 3.3-2.7 6-6 6H1018" stroke="#5e5e5e" stroke-width="2" fill="none"/><path d="M450.88 721.87h-1.78l1.52-2h.26z" fill="#5e5e5e"/><path d="M1002.73 950l14.26-4.64v9.28z" stroke="#5e5e5e" stroke-width="2" fill="#5e5e5e"/><path d="M460.26 700H1054c3.3 0 6 2.7 6 6v242.5c0 .83.67 1.5 1.5 1.5" stroke="#5e5e5e" stroke-width="2" fill="none"/><path d="M460.28 701h-1.17l.3-2h.88z" fill="#5e5e5e"/><path d="M1076.76 950l-14.26 4.64v-9.28z" stroke="#5e5e5e" stroke-width="2" fill="#5e5e5e"/><path d="M460.23 679.7H1054c3.3 0 6-2.7 6-6V371.5c0-.83.67-1.5 1.5-1.5" stroke="#5e5e5e" stroke-width="2" fill="none"/><path d="M460.25 680.7h-.86l-.07-.57-.33-1.44h1.25z" fill="#5e5e5e"/><path d="M1076.76 370l-14.26 4.64v-9.28z" stroke="#5e5e5e" stroke-width="2" fill="#5e5e5e"/><path d="M1149.07 388.78V704c0 3.3 2.68 6 6 6h566.43" stroke="#5e5e5e" stroke-width="2" fill="none"/><path d="M1150.07 388.8h-2v-.6l2-.83z" fill="#5e5e5e"/><path d="M1736.76 710l-14.26 4.64v-9.28z" stroke="#5e5e5e" stroke-width="2" fill="#5e5e5e"/><path d="M1739 689.3h-551.5c-3.32 0-6-2.7-6-6V373.5c0-1.93-1.57-3.5-3.5-3.5" stroke="#5e5e5e" stroke-width="2" fill="none"/><path d="M1740 690.3h-1.03v-2h1.03z" fill="#5e5e5e"/><path d="M1162.73 370l14.26-4.64v9.28z" stroke="#5e5e5e" stroke-width="2" fill="#5e5e5e"/><defs><path fill="#333" d="M205 0l-28-72H64L36 0H1l101-248h38L239 0h-34zm-38-99l-47-123c-12 45-31 82-46 123h93" id="J"/><path fill="#333" d="M266 0h-40l-56-210L115 0H75L2-248h35L96-30l15-64 43-154h32l59 218 59-218h35" id="K"/><path fill="#333" d="M185-189c-5-48-123-54-124 2 14 75 158 14 163 119 3 78-121 87-175 55-17-10-28-26-33-46l33-7c5 56 141 63 141-1 0-78-155-14-162-118-5-82 145-84 179-34 5 7 8 16 11 25" id="L"/><g id="a"><use transform="matrix(0.049382716049382706,0,0,0.049382716049382706,0,0)" xlink:href="#J"/><use transform="matrix(0.049382716049382706,0,0,0.049382716049382706,11.209876543209875,0)" xlink:href="#K"/><use transform="matrix(0.049382716049382706,0,0,0.049382716049382706,27.950617283950614,0)" xlink:href="#L"/></g><path fill="#333" d="M137 0h-34L2-248h35l83 218 83-218h36" id="M"/><path fill="#333" d="M30-248c87 1 191-15 191 75 0 78-77 80-158 76V0H30v-248zm33 125c57 0 124 11 124-50 0-59-68-47-124-48v98" id="N"/><path fill="#333" d="M212-179c-10-28-35-45-73-45-59 0-87 40-87 99 0 60 29 101 89 101 43 0 62-24 78-52l27 14C228-24 195 4 139 4 59 4 22-46 18-125c-6-104 99-153 187-111 19 9 31 26 39 46" id="O"/><g id="b"><use transform="matrix(0.049382716049382706,0,0,0.049382716049382706,0,0)" xlink:href="#M"/><use transform="matrix(0.049382716049382706,0,0,0.049382716049382706,11.85185185185185,0)" xlink:href="#N"/><use transform="matrix(0.049382716049382706,0,0,0.049382716049382706,23.7037037037037,0)" xlink:href="#O"/></g><path fill="#333" d="M16-82v-28h88v28H16" id="P"/><use transform="matrix(0.049382716049382706,0,0,0.049382716049382706,0,0)" xlink:href="#P" id="c"/><path fill="#333" d="M27 0v-27h64v-190l-56 39v-29l58-41h29v221h61V0H27" id="Q"/><path fill="#333" d="M101-251c68 0 85 55 85 127S166 4 100 4C33 4 14-52 14-124c0-73 17-127 87-127zm-1 229c47 0 54-49 54-102s-4-102-53-102c-51 0-55 48-55 102 0 53 5 102 54 102" id="R"/><path fill="#333" d="M33 0v-38h34V0H33" id="S"/><path fill="#333" d="M0 4l72-265h28L28 4H0" id="T"/><path fill="#333" d="M110-160c48 1 74 30 74 79 0 53-28 85-80 85-65 0-83-55-86-122-5-90 50-162 133-122 14 7 22 21 27 39l-31 6c-5-40-67-38-82-6-9 19-15 44-15 74 11-20 30-34 60-33zm-7 138c34 0 49-23 49-58s-16-56-50-56c-29 0-50 16-49 49 1 36 15 65 50 65" id="U"/><g id="d"><use transform="matrix(0.049382716049382706,0,0,0.049382716049382706,0,0)" xlink:href="#Q"/><use transform="matrix(0.049382716049382706,0,0,0.049382716049382706,9.87654320987654,0)" xlink:href="#R"/><use transform="matrix(0.049382716049382706,0,0,0.049382716049382706,19.75308641975308,0)" xlink:href="#S"/><use transform="matrix(0.049382716049382706,0,0,0.049382716049382706,24.691358024691354,0)" xlink:href="#R"/><use transform="matrix(0.049382716049382706,0,0,0.049382716049382706,34.5679012345679,0)" xlink:href="#S"/><use transform="matrix(0.049382716049382706,0,0,0.049382716049382706,39.50617283950617,0)" xlink:href="#R"/><use transform="matrix(0.049382716049382706,0,0,0.049382716049382706,49.38271604938271,0)" xlink:href="#S"/><use transform="matrix(0.049382716049382706,0,0,0.049382716049382706,54.32098765432098,0)" xlink:href="#R"/><use transform="matrix(0.049382716049382706,0,0,0.049382716049382706,64.19753086419752,0)" xlink:href="#T"/><use transform="matrix(0.049382716049382706,0,0,0.049382716049382706,69.13580246913578,0)" xlink:href="#Q"/><use transform="matrix(0.049382716049382706,0,0,0.049382716049382706,79.01234567901233,0)" xlink:href="#U"/></g><path fill="#333" d="M108 0H70L1-190h34L89-25l56-165h34" id="V"/><path fill="#333" d="M141-36C126-15 110 5 73 4 37 3 15-17 15-53c-1-64 63-63 125-63 3-35-9-54-41-54-24 1-41 7-42 31l-33-3c5-37 33-52 76-52 45 0 72 20 72 64v82c-1 20 7 32 28 27v20c-31 9-61-2-59-35zM48-53c0 20 12 33 32 33 41-3 63-29 60-74-43 2-92-5-92 41" id="W"/><path fill="#333" d="M24-231v-30h32v30H24zM24 0v-190h32V0H24" id="X"/><path fill="#333" d="M24 0v-261h32V0H24" id="Y"/><path fill="#333" d="M115-194c53 0 69 39 70 98 0 66-23 100-70 100C84 3 66-7 56-30L54 0H23l1-261h32v101c10-23 28-34 59-34zm-8 174c40 0 45-34 45-75 0-40-5-75-45-74-42 0-51 32-51 76 0 43 10 73 51 73" id="Z"/><path fill="#333" d="M59-47c-2 24 18 29 38 22v24C64 9 27 4 27-40v-127H5v-23h24l9-43h21v43h35v23H59v120" id="aa"/><path fill="#333" d="M179-190L93 31C79 59 56 82 12 73V49c39 6 53-20 64-50L1-190h34L92-34l54-156h33" id="ab"/><g id="e"><use transform="matrix(0.049382716049382706,0,0,0.049382716049382706,0,0)" xlink:href="#J"/><use transform="matrix(0.049382716049382706,0,0,0.049382716049382706,11.50617283950617,0)" xlink:href="#V"/><use transform="matrix(0.049382716049382706,0,0,0.049382716049382706,20.395061728395056,0)" xlink:href="#W"/><use transform="matrix(0.049382716049382706,0,0,0.049382716049382706,30.271604938271597,0)" xlink:href="#X"/><use transform="matrix(0.049382716049382706,0,0,0.049382716049382706,34.17283950617283,0)" xlink:href="#Y"/><use transform="matrix(0.049382716049382706,0,0,0.049382716049382706,38.07407407407406,0)" xlink:href="#W"/><use transform="matrix(0.049382716049382706,0,0,0.049382716049382706,47.950617283950606,0)" xlink:href="#Z"/><use transform="matrix(0.049382716049382706,0,0,0.049382716049382706,57.82716049382715,0)" xlink:href="#X"/><use transform="matrix(0.049382716049382706,0,0,0.049382716049382706,61.728395061728385,0)" xlink:href="#Y"/><use transform="matrix(0.049382716049382706,0,0,0.049382716049382706,65.62962962962962,0)" xlink:href="#X"/><use transform="matrix(0.049382716049382706,0,0,0.049382716049382706,69.53086419753085,0)" xlink:href="#aa"/><use transform="matrix(0.049382716049382706,0,0,0.049382716049382706,74.46913580246911,0)" xlink:href="#ab"/></g><path fill="#333" d="M209 0H11v-25l151-195H24v-28h176v25L50-27h159V0" id="ac"/><path fill="#333" d="M100-194c62-1 85 37 85 99 1 63-27 99-86 99S16-35 15-95c0-66 28-99 85-99zM99-20c44 1 53-31 53-75 0-43-8-75-51-75s-53 32-53 75 10 74 51 75" id="ad"/><path fill="#333" d="M117-194c89-4 53 116 60 194h-32v-121c0-31-8-49-39-48C34-167 62-67 57 0H25l-1-190h30c1 10-1 24 2 32 11-22 29-35 61-36" id="ae"/><path fill="#333" d="M100-194c63 0 86 42 84 106H49c0 40 14 67 53 68 26 1 43-12 49-29l28 8c-11 28-37 45-77 45C44 4 14-33 15-96c1-61 26-98 85-98zm52 81c6-60-76-77-97-28-3 7-6 17-6 28h103" id="af"/><g id="f"><use transform="matrix(0.049382716049382706,0,0,0.049382716049382706,0,0)" xlink:href="#ac"/><use transform="matrix(0.049382716049382706,0,0,0.049382716049382706,10.814814814814813,0)" xlink:href="#ad"/><use transform="matrix(0.049382716049382706,0,0,0.049382716049382706,20.691358024691354,0)" xlink:href="#ae"/><use transform="matrix(0.049382716049382706,0,0,0.049382716049382706,30.567901234567895,0)" xlink:href="#af"/></g><path fill="#333" d="M101-251c82-7 93 87 43 132L82-64C71-53 59-42 53-27h129V0H18c2-99 128-94 128-182 0-28-16-43-45-43s-46 15-49 41l-32-3c6-41 34-60 81-64" id="ag"/><use transform="matrix(0.049382716049382706,0,0,0.049382716049382706,0,0)" xlink:href="#ag" id="g"/><use transform="matrix(0.049382716049382706,0,0,0.049382716049382706,0,0)" xlink:href="#Q" id="h"/><path fill="#333" d="M84 4C-5 8 30-112 23-190h32v120c0 31 7 50 39 49 72-2 45-101 50-169h31l1 190h-30c-1-10 1-25-2-33-11 22-28 36-60 37" id="ah"/><path fill="#333" d="M135-143c-3-34-86-38-87 0 15 53 115 12 119 90S17 21 10-45l28-5c4 36 97 45 98 0-10-56-113-15-118-90-4-57 82-63 122-42 12 7 21 19 24 35" id="ai"/><path fill="#333" d="M114-163C36-179 61-72 57 0H25l-1-190h30c1 12-1 29 2 39 6-27 23-49 58-41v29" id="aj"/><g id="i"><use transform="matrix(0.06172839506172839,0,0,0.06172839506172839,0,0)" xlink:href="#ah"/><use transform="matrix(0.06172839506172839,0,0,0.06172839506172839,12.345679012345679,0)" xlink:href="#ai"/><use transform="matrix(0.06172839506172839,0,0,0.06172839506172839,23.45679012345679,0)" xlink:href="#af"/><use transform="matrix(0.06172839506172839,0,0,0.06172839506172839,35.80246913580247,0)" xlink:href="#aj"/><use transform="matrix(0.06172839506172839,0,0,0.06172839506172839,43.148148148148145,0)" xlink:href="#ai"/></g><path fill="#333" d="M210-169c-67 3-38 105-44 169h-31v-121c0-29-5-50-35-48C34-165 62-65 56 0H25l-1-190h30c1 10-1 24 2 32 10-44 99-50 107 0 11-21 27-35 58-36 85-2 47 119 55 194h-31v-121c0-29-5-49-35-48" id="ak"/><path fill="#333" d="M9 0v-24l116-142H16v-24h144v24L44-24h123V0H9" id="al"/><g id="j"><use transform="matrix(0.06172839506172839,0,0,0.06172839506172839,0,0)" xlink:href="#J"/><use transform="matrix(0.06172839506172839,0,0,0.06172839506172839,14.814814814814813,0)" xlink:href="#ak"/><use transform="matrix(0.06172839506172839,0,0,0.06172839506172839,33.2716049382716,0)" xlink:href="#W"/><use transform="matrix(0.06172839506172839,0,0,0.06172839506172839,45.61728395061728,0)" xlink:href="#al"/><use transform="matrix(0.06172839506172839,0,0,0.06172839506172839,56.72839506172839,0)" xlink:href="#ad"/><use transform="matrix(0.06172839506172839,0,0,0.06172839506172839,69.07407407407408,0)" xlink:href="#ae"/></g><path fill="#333" d="M126-127c33 6 58 20 58 59 0 88-139 92-164 29-3-8-5-16-6-25l32-3c6 27 21 44 54 44 32 0 52-15 52-46 0-38-36-46-79-43v-28c39 1 72-4 72-42 0-27-17-43-46-43-28 0-47 15-49 41l-32-3c6-42 35-63 81-64 48-1 79 21 79 65 0 36-21 52-52 59" id="am"/><g id="k"><use transform="matrix(0.06172839506172839,0,0,0.06172839506172839,0,0)" xlink:href="#L"/><use transform="matrix(0.06172839506172839,0,0,0.06172839506172839,14.814814814814813,0)" xlink:href="#am"/></g><path fill="#333" d="M96-169c-40 0-48 33-48 73s9 75 48 75c24 0 41-14 43-38l32 2c-6 37-31 61-74 61-59 0-76-41-82-99-10-93 101-131 147-64 4 7 5 14 7 22l-32 3c-4-21-16-35-41-35" id="an"/><g id="l"><use transform="matrix(0.0493827160493827,0,0,0.0493827160493827,0,0)" xlink:href="#N"/><use transform="matrix(0.0493827160493827,0,0,0.0493827160493827,11.851851851851848,0)" xlink:href="#ah"/><use transform="matrix(0.0493827160493827,0,0,0.0493827160493827,21.728395061728385,0)" xlink:href="#Z"/><use transform="matrix(0.0493827160493827,0,0,0.0493827160493827,31.604938271604922,0)" xlink:href="#Y"/><use transform="matrix(0.0493827160493827,0,0,0.0493827160493827,35.506172839506156,0)" xlink:href="#X"/><use transform="matrix(0.0493827160493827,0,0,0.0493827160493827,39.40740740740739,0)" xlink:href="#an"/></g><g id="m"><use transform="matrix(0.0493827160493827,0,0,0.0493827160493827,0,0)" xlink:href="#L"/><use transform="matrix(0.0493827160493827,0,0,0.0493827160493827,11.851851851851848,0)" xlink:href="#ah"/><use transform="matrix(0.0493827160493827,0,0,0.0493827160493827,21.728395061728385,0)" xlink:href="#Z"/><use transform="matrix(0.0493827160493827,0,0,0.0493827160493827,31.604938271604922,0)" xlink:href="#ae"/><use transform="matrix(0.0493827160493827,0,0,0.0493827160493827,41.48148148148146,0)" xlink:href="#af"/><use transform="matrix(0.0493827160493827,0,0,0.0493827160493827,51.358024691358,0)" xlink:href="#aa"/></g><use transform="matrix(0.0493827160493827,0,0,0.0493827160493827,0,0)" xlink:href="#Q" id="n"/><use transform="matrix(0.0493827160493827,0,0,0.0493827160493827,0,0)" xlink:href="#ag" id="o"/><path fill="#333" d="M33 0v-248h34V0H33" id="ao"/><path fill="#333" d="M143 4C61 4 22-44 18-125c-5-107 100-154 193-111 17 8 29 25 37 43l-32 9c-13-25-37-40-76-40-61 0-88 39-88 99 0 61 29 100 91 101 35 0 62-11 79-27v-45h-74v-28h105v86C228-13 192 4 143 4" id="ap"/><g id="p"><use transform="matrix(0.0493827160493827,0,0,0.0493827160493827,0,0)" xlink:href="#ao"/><use transform="matrix(0.0493827160493827,0,0,0.0493827160493827,4.9382716049382696,0)" xlink:href="#ap"/><use transform="matrix(0.0493827160493827,0,0,0.0493827160493827,18.765432098765427,0)" xlink:href="#K"/></g><g id="q"><use transform="matrix(0.0493827160493827,0,0,0.0493827160493827,0,0)" xlink:href="#M"/><use transform="matrix(0.0493827160493827,0,0,0.0493827160493827,11.851851851851848,0)" xlink:href="#N"/><use transform="matrix(0.0493827160493827,0,0,0.0493827160493827,23.703703703703695,0)" xlink:href="#O"/></g><path fill="#333" d="M190 0L58-211 59 0H30v-248h39L202-35l-2-213h31V0h-41" id="aq"/><path fill="#333" d="M127-220V0H93v-220H8v-28h204v28h-85" id="ar"/><g id="r"><use transform="matrix(0.0493827160493827,0,0,0.0493827160493827,0,0)" xlink:href="#aq"/><use transform="matrix(0.0493827160493827,0,0,0.0493827160493827,12.79012345679012,0)" xlink:href="#J"/><use transform="matrix(0.0493827160493827,0,0,0.0493827160493827,23.308641975308635,0)" xlink:href="#ar"/></g><path fill="#333" d="M177-190C167-65 218 103 67 71c-23-6-38-20-44-43l32-5c15 47 100 32 89-28v-30C133-14 115 1 83 1 29 1 15-40 15-95c0-56 16-97 71-98 29-1 48 16 59 35 1-10 0-23 2-32h30zM94-22c36 0 50-32 50-73 0-42-14-75-50-75-39 0-46 34-46 75s6 73 46 73" id="as"/><path fill="#333" d="M206 0h-36l-40-164L89 0H53L-1-190h32L70-26l43-164h34l41 164 42-164h31" id="at"/><g id="s"><use transform="matrix(0.0493827160493827,0,0,0.0493827160493827,0,0)" xlink:href="#as"/><use transform="matrix(0.0493827160493827,0,0,0.0493827160493827,9.876543209876539,0)" xlink:href="#W"/><use transform="matrix(0.0493827160493827,0,0,0.0493827160493827,19.753086419753078,0)" xlink:href="#aa"/><use transform="matrix(0.0493827160493827,0,0,0.0493827160493827,24.691358024691347,0)" xlink:href="#af"/><use transform="matrix(0.0493827160493827,0,0,0.0493827160493827,34.567901234567884,0)" xlink:href="#at"/><use transform="matrix(0.0493827160493827,0,0,0.0493827160493827,47.358024691358004,0)" xlink:href="#W"/><use transform="matrix(0.0493827160493827,0,0,0.0493827160493827,57.234567901234534,0)" xlink:href="#ab"/></g><path fill="#333" d="M30 0v-248h187v28H63v79h144v27H63v87h162V0H30" id="au"/><g id="t"><use transform="matrix(0.0493827160493827,0,0,0.0493827160493827,0,0)" xlink:href="#au"/><use transform="matrix(0.0493827160493827,0,0,0.0493827160493827,11.851851851851848,0)" xlink:href="#Y"/><use transform="matrix(0.0493827160493827,0,0,0.0493827160493827,15.753086419753082,0)" xlink:href="#W"/><use transform="matrix(0.0493827160493827,0,0,0.0493827160493827,25.629629629629623,0)" xlink:href="#ai"/><use transform="matrix(0.0493827160493827,0,0,0.0493827160493827,34.518518518518505,0)" xlink:href="#aa"/><use transform="matrix(0.0493827160493827,0,0,0.0493827160493827,39.45679012345678,0)" xlink:href="#X"/><use transform="matrix(0.0493827160493827,0,0,0.0493827160493827,43.35802469135801,0)" xlink:href="#an"/></g><path fill="#333" d="M30 0v-248h33v221h125V0H30" id="av"/><path fill="#333" d="M85-194c31 0 48 13 60 33l-1-100h32l1 261h-30c-2-10 0-23-3-31C134-8 116 4 85 4 32 4 16-35 15-94c0-66 23-100 70-100zm9 24c-40 0-46 34-46 75 0 40 6 74 45 74 42 0 51-32 51-76 0-42-9-74-50-73" id="aw"/><g id="u"><use transform="matrix(0.0493827160493827,0,0,0.0493827160493827,0,0)" xlink:href="#av"/><use transform="matrix(0.0493827160493827,0,0,0.0493827160493827,9.876543209876539,0)" xlink:href="#ad"/><use transform="matrix(0.0493827160493827,0,0,0.0493827160493827,19.753086419753078,0)" xlink:href="#W"/><use transform="matrix(0.0493827160493827,0,0,0.0493827160493827,29.62962962962962,0)" xlink:href="#aw"/></g><path fill="#333" d="M160-131c35 5 61 23 61 61C221 17 115-2 30 0v-248c76 3 177-17 177 60 0 33-19 50-47 57zm-97-11c50-1 110 9 110-42 0-47-63-36-110-37v79zm0 115c55-2 124 14 124-45 0-56-70-42-124-44v89" id="ax"/><g id="v"><use transform="matrix(0.0493827160493827,0,0,0.0493827160493827,0,0)" xlink:href="#ax"/><use transform="matrix(0.0493827160493827,0,0,0.0493827160493827,11.851851851851848,0)" xlink:href="#W"/><use transform="matrix(0.0493827160493827,0,0,0.0493827160493827,21.728395061728385,0)" xlink:href="#Y"/><use transform="matrix(0.0493827160493827,0,0,0.0493827160493827,25.629629629629623,0)" xlink:href="#W"/><use transform="matrix(0.0493827160493827,0,0,0.0493827160493827,35.506172839506156,0)" xlink:href="#ae"/><use transform="matrix(0.0493827160493827,0,0,0.0493827160493827,45.382716049382694,0)" xlink:href="#an"/><use transform="matrix(0.0493827160493827,0,0,0.0493827160493827,54.27160493827157,0)" xlink:href="#af"/><use transform="matrix(0.0493827160493827,0,0,0.0493827160493827,64.14814814814812,0)" xlink:href="#aj"/></g><path fill="#a9afb8" d="M238-95c0 69-44 99-111 99C63 4 22-25 22-93v-155h51v151c-1 38 19 59 55 60 90 1 49-130 58-211h52v153" id="ay"/><path fill="#a9afb8" d="M88-194c31-1 46 15 58 34l-1-101h50l1 261h-48c-2-10 0-23-3-31C134-8 116 4 84 4 32 4 16-41 15-95c0-56 19-97 73-99zm17 164c33 0 40-30 41-66 1-37-9-64-41-64s-38 30-39 65c0 43 13 65 39 65" id="az"/><path fill="#a9afb8" d="M133-34C117-15 103 5 69 4 32 3 11-16 11-54c-1-60 55-63 116-61 1-26-3-47-28-47-18 1-26 9-28 27l-52-2c7-38 36-58 82-57s74 22 75 68l1 82c-1 14 12 18 25 15v27c-30 8-71 5-69-32zm-48 3c29 0 43-24 42-57-32 0-66-3-65 30 0 17 8 27 23 27" id="aA"/><path fill="#a9afb8" d="M190-63c-7 42-38 67-86 67-59 0-84-38-90-98-12-110 154-137 174-36l-49 2c-2-19-15-32-35-32-30 0-35 28-38 64-6 74 65 87 74 30" id="aB"/><path fill="#a9afb8" d="M25-224v-37h50v37H25zM25 0v-190h50V0H25" id="aC"/><path fill="#a9afb8" d="M115-3C79 11 28 4 28-45v-112H4v-33h27l15-45h31v45h36v33H77v99c-1 23 16 31 38 25v30" id="aD"/><path fill="#a9afb8" d="M123 10C108 53 80 86 19 72V37c35 8 53-11 59-39L3-190h52l48 148c12-52 28-100 44-148h51" id="aE"/><path fill="#a9afb8" d="M14-72v-43h91v43H14" id="aF"/><path fill="#a9afb8" d="M195-6C206 82 75 100 31 46c-4-6-6-13-8-21l49-6c3 16 16 24 34 25 40 0 42-37 40-79-11 22-30 35-61 35-53 0-70-43-70-97 0-56 18-96 73-97 30 0 46 14 59 34l2-30h47zm-90-29c32 0 41-27 41-63 0-35-9-62-40-62-32 0-39 29-40 63 0 36 9 62 39 62" id="aG"/><path fill="#a9afb8" d="M135-150c-39-12-60 13-60 57V0H25l-1-190h47c2 13-1 29 3 40 6-28 27-53 61-41v41" id="aH"/><path fill="#a9afb8" d="M220-157c-53 9-28 100-34 157h-49v-107c1-27-5-49-29-50C55-147 81-57 75 0H25l-1-190h47c2 12-1 28 3 38 10-53 101-56 108 0 13-22 24-43 59-42 82 1 51 116 57 194h-49v-107c-1-25-5-48-29-50" id="aI"/><g id="w"><use transform="matrix(0.0728395061728395,0,0,0.0728395061728395,0,0)" xlink:href="#ay"/><use transform="matrix(0.0728395061728395,0,0,0.0728395061728395,18.86543209876543,0)" xlink:href="#az"/><use transform="matrix(0.0728395061728395,0,0,0.0728395061728395,34.81728395061728,0)" xlink:href="#aA"/><use transform="matrix(0.0728395061728395,0,0,0.0728395061728395,49.38518518518518,0)" xlink:href="#aB"/><use transform="matrix(0.0728395061728395,0,0,0.0728395061728395,63.95308641975308,0)" xlink:href="#aC"/><use transform="matrix(0.0728395061728395,0,0,0.0728395061728395,71.23703703703703,0)" xlink:href="#aD"/><use transform="matrix(0.0728395061728395,0,0,0.0728395061728395,79.90493827160493,0)" xlink:href="#aE"/><use transform="matrix(0.0728395061728395,0,0,0.0728395061728395,94.47283950617283,0)" xlink:href="#aF"/><use transform="matrix(0.0728395061728395,0,0,0.0728395061728395,103.14074074074074,0)" xlink:href="#ay"/><use transform="matrix(0.0728395061728395,0,0,0.0728395061728395,122.00617283950618,0)" xlink:href="#az"/><use transform="matrix(0.0728395061728395,0,0,0.0728395061728395,137.95802469135802,0)" xlink:href="#aA"/><use transform="matrix(0.0728395061728395,0,0,0.0728395061728395,152.52592592592592,0)" xlink:href="#aG"/><use transform="matrix(0.0728395061728395,0,0,0.0728395061728395,168.4777777777778,0)" xlink:href="#aH"/><use transform="matrix(0.0728395061728395,0,0,0.0728395061728395,178.67530864197528,0)" xlink:href="#aA"/><use transform="matrix(0.0728395061728395,0,0,0.0728395061728395,193.24320987654318,0)" xlink:href="#aI"/></g><path fill="#a9afb8" d="M233-177c-1 41-23 64-60 70L243 0h-38l-65-103H63V0H30v-248c88 3 205-21 203 71zM63-129c60-2 137 13 137-47 0-61-80-42-137-45v92" id="aJ"/><path fill="#a9afb8" d="M84 4C-5 8 30-112 23-190h32v120c0 31 7 50 39 49 72-2 45-101 50-169h31l1 190h-30c-1-10 1-25-2-33-11 22-28 36-60 37" id="aK"/><path fill="#a9afb8" d="M85-194c31 0 48 13 60 33l-1-100h32l1 261h-30c-2-10 0-23-3-31C134-8 116 4 85 4 32 4 16-35 15-94c0-66 23-100 70-100zm9 24c-40 0-46 34-46 75 0 40 6 74 45 74 42 0 51-32 51-76 0-42-9-74-50-73" id="aL"/><path fill="#a9afb8" d="M177-190C167-65 218 103 67 71c-23-6-38-20-44-43l32-5c15 47 100 32 89-28v-30C133-14 115 1 83 1 29 1 15-40 15-95c0-56 16-97 71-98 29-1 48 16 59 35 1-10 0-23 2-32h30zM94-22c36 0 50-32 50-73 0-42-14-75-50-75-39 0-46 34-46 75s6 73 46 73" id="aM"/><path fill="#a9afb8" d="M100-194c63 0 86 42 84 106H49c0 40 14 67 53 68 26 1 43-12 49-29l28 8c-11 28-37 45-77 45C44 4 14-33 15-96c1-61 26-98 85-98zm52 81c6-60-76-77-97-28-3 7-6 17-6 28h103" id="aN"/><path fill="#a9afb8" d="M114-163C36-179 61-72 57 0H25l-1-190h30c1 12-1 29 2 39 6-27 23-49 58-41v29" id="aO"/><g id="x"><use transform="matrix(0.04248971193415638,0,0,0.04248971193415638,0,0)" xlink:href="#aJ"/><use transform="matrix(0.04248971193415638,0,0,0.04248971193415638,11.004835390946502,0)" xlink:href="#aK"/><use transform="matrix(0.04248971193415638,0,0,0.04248971193415638,19.502777777777776,0)" xlink:href="#aL"/><use transform="matrix(0.04248971193415638,0,0,0.04248971193415638,28.000720164609046,0)" xlink:href="#aM"/><use transform="matrix(0.04248971193415638,0,0,0.04248971193415638,36.498662551440326,0)" xlink:href="#aN"/><use transform="matrix(0.04248971193415638,0,0,0.04248971193415638,44.9966049382716,0)" xlink:href="#aO"/></g><path fill="#a9afb8" d="M143 4C61 4 22-44 18-125c-5-107 100-154 193-111 17 8 29 25 37 43l-32 9c-13-25-37-40-76-40-61 0-88 39-88 99 0 61 29 100 91 101 35 0 62-11 79-27v-45h-74v-28h105v86C228-13 192 4 143 4" id="aP"/><path fill="#a9afb8" d="M141-36C126-15 110 5 73 4 37 3 15-17 15-53c-1-64 63-63 125-63 3-35-9-54-41-54-24 1-41 7-42 31l-33-3c5-37 33-52 76-52 45 0 72 20 72 64v82c-1 20 7 32 28 27v20c-31 9-61-2-59-35zM48-53c0 20 12 33 32 33 41-3 63-29 60-74-43 2-92-5-92 41" id="aQ"/><path fill="#a9afb8" d="M108 0H70L1-190h34L89-25l56-165h34" id="aR"/><path fill="#a9afb8" d="M135-143c-3-34-86-38-87 0 15 53 115 12 119 90S17 21 10-45l28-5c4 36 97 45 98 0-10-56-113-15-118-90-4-57 82-63 122-42 12 7 21 19 24 35" id="aS"/><path fill="#a9afb8" d="M59-47c-2 24 18 29 38 22v24C64 9 27 4 27-40v-127H5v-23h24l9-43h21v43h35v23H59v120" id="aT"/><path fill="#a9afb8" d="M24-231v-30h32v30H24zM24 0v-190h32V0H24" id="aU"/><path fill="#a9afb8" d="M117-194c89-4 53 116 60 194h-32v-121c0-31-8-49-39-48C34-167 62-67 57 0H25l-1-190h30c1 10-1 24 2 32 11-22 29-35 61-36" id="aV"/><g id="y"><use transform="matrix(0.04248971193415638,0,0,0.04248971193415638,0,0)" xlink:href="#aP"/><use transform="matrix(0.04248971193415638,0,0,0.04248971193415638,11.897119341563785,0)" xlink:href="#aO"/><use transform="matrix(0.04248971193415638,0,0,0.04248971193415638,16.953395061728394,0)" xlink:href="#aQ"/><use transform="matrix(0.04248971193415638,0,0,0.04248971193415638,25.45133744855967,0)" xlink:href="#aR"/><use transform="matrix(0.04248971193415638,0,0,0.04248971193415638,33.099485596707815,0)" xlink:href="#aN"/><use transform="matrix(0.04248971193415638,0,0,0.04248971193415638,41.59742798353909,0)" xlink:href="#aS"/><use transform="matrix(0.04248971193415638,0,0,0.04248971193415638,49.245576131687244,0)" xlink:href="#aT"/><use transform="matrix(0.04248971193415638,0,0,0.04248971193415638,53.49454732510287,0)" xlink:href="#aN"/><use transform="matrix(0.04248971193415638,0,0,0.04248971193415638,61.99248971193414,0)" xlink:href="#aU"/><use transform="matrix(0.04248971193415638,0,0,0.04248971193415638,65.3491769547325,0)" xlink:href="#aV"/></g><path fill="#a9afb8" d="M32 76v-337h29V76H32" id="aW"/><use transform="matrix(0.04248971193415638,0,0,0.04248971193415638,0,0)" xlink:href="#aW" id="z"/><path fill="#a9afb8" d="M205 0l-28-72H64L36 0H1l101-248h38L239 0h-34zm-38-99l-47-123c-12 45-31 82-46 123h93" id="aX"/><g id="A"><use transform="matrix(0.04248971193415638,0,0,0.04248971193415638,0,0)" xlink:href="#aX"/><use transform="matrix(0.04248971193415638,0,0,0.04248971193415638,10.19753086419753,0)" xlink:href="#aK"/><use transform="matrix(0.04248971193415638,0,0,0.04248971193415638,18.695473251028805,0)" xlink:href="#aM"/><use transform="matrix(0.04248971193415638,0,0,0.04248971193415638,27.193415637860078,0)" xlink:href="#aK"/><use transform="matrix(0.04248971193415638,0,0,0.04248971193415638,35.691358024691354,0)" xlink:href="#aS"/><use transform="matrix(0.04248971193415638,0,0,0.04248971193415638,43.3395061728395,0)" xlink:href="#aT"/></g><path fill="#a9afb8" d="M101-251c82-7 93 87 43 132L82-64C71-53 59-42 53-27h129V0H18c2-99 128-94 128-182 0-28-16-43-45-43s-46 15-49 41l-32-3c6-41 34-60 81-64" id="aY"/><path fill="#a9afb8" d="M155-56V0h-30v-56H8v-25l114-167h33v167h35v25h-35zm-30-156c-27 46-58 90-88 131h88v-131" id="aZ"/><path fill="#a9afb8" d="M68-38c1 34 0 65-14 84H32c9-13 17-26 17-46H33v-38h35" id="ba"/><g id="B"><use transform="matrix(0.04248971193415638,0,0,0.04248971193415638,0,0)" xlink:href="#aY"/><use transform="matrix(0.04248971193415638,0,0,0.04248971193415638,8.497942386831275,0)" xlink:href="#aZ"/><use transform="matrix(0.04248971193415638,0,0,0.04248971193415638,16.99588477366255,0)" xlink:href="#ba"/></g><path fill="#a9afb8" d="M101-251c68 0 85 55 85 127S166 4 100 4C33 4 14-52 14-124c0-73 17-127 87-127zm-1 229c47 0 54-49 54-102s-4-102-53-102c-51 0-55 48-55 102 0 53 5 102 54 102" id="bb"/><g id="C"><use transform="matrix(0.04248971193415638,0,0,0.04248971193415638,0,0)" xlink:href="#aY"/><use transform="matrix(0.04248971193415638,0,0,0.04248971193415638,8.497942386831275,0)" xlink:href="#bb"/><use transform="matrix(0.04248971193415638,0,0,0.04248971193415638,16.99588477366255,0)" xlink:href="#aY"/><use transform="matrix(0.04248971193415638,0,0,0.04248971193415638,25.493827160493822,0)" xlink:href="#bb"/></g><g id="D"><use transform="matrix(0.0493827160493827,0,0,0.0493827160493827,0,0)" xlink:href="#N"/><use transform="matrix(0.0493827160493827,0,0,0.0493827160493827,11.851851851851848,0)" xlink:href="#aj"/><use transform="matrix(0.0493827160493827,0,0,0.0493827160493827,17.72839506172839,0)" xlink:href="#X"/><use transform="matrix(0.0493827160493827,0,0,0.0493827160493827,21.629629629629623,0)" xlink:href="#V"/><use transform="matrix(0.0493827160493827,0,0,0.0493827160493827,30.51851851851851,0)" xlink:href="#W"/><use transform="matrix(0.0493827160493827,0,0,0.0493827160493827,40.39506172839505,0)" xlink:href="#aa"/><use transform="matrix(0.0493827160493827,0,0,0.0493827160493827,45.33333333333332,0)" xlink:href="#af"/></g><g id="E"><use transform="matrix(0.0493827160493827,0,0,0.0493827160493827,0,0)" xlink:href="#J"/><use transform="matrix(0.0493827160493827,0,0,0.0493827160493827,11.851851851851848,0)" xlink:href="#ah"/><use transform="matrix(0.0493827160493827,0,0,0.0493827160493827,21.728395061728385,0)" xlink:href="#aa"/><use transform="matrix(0.0493827160493827,0,0,0.0493827160493827,26.666666666666654,0)" xlink:href="#ad"/></g><g id="F"><use transform="matrix(0.0493827160493827,0,0,0.0493827160493827,0,0)" xlink:href="#L"/><use transform="matrix(0.0493827160493827,0,0,0.0493827160493827,11.851851851851848,0)" xlink:href="#an"/><use transform="matrix(0.0493827160493827,0,0,0.0493827160493827,20.740740740740733,0)" xlink:href="#W"/><use transform="matrix(0.0493827160493827,0,0,0.0493827160493827,30.617283950617267,0)" xlink:href="#Y"/><use transform="matrix(0.0493827160493827,0,0,0.0493827160493827,34.518518518518505,0)" xlink:href="#X"/><use transform="matrix(0.0493827160493827,0,0,0.0493827160493827,38.41975308641974,0)" xlink:href="#ae"/><use transform="matrix(0.0493827160493827,0,0,0.0493827160493827,48.296296296296276,0)" xlink:href="#as"/></g><path fill="#333" d="M115-194c55 1 70 41 70 98S169 2 115 4C84 4 66-9 55-30l1 105H24l-1-265h31l2 30c10-21 28-34 59-34zm-8 174c40 0 45-34 45-75s-6-73-45-74c-42 0-51 32-51 76 0 43 10 73 51 73" id="bc"/><g id="G"><use transform="matrix(0.0493827160493827,0,0,0.0493827160493827,0,0)" xlink:href="#as"/><use transform="matrix(0.0493827160493827,0,0,0.0493827160493827,9.876543209876539,0)" xlink:href="#aj"/><use transform="matrix(0.0493827160493827,0,0,0.0493827160493827,15.753086419753082,0)" xlink:href="#ad"/><use transform="matrix(0.0493827160493827,0,0,0.0493827160493827,25.629629629629623,0)" xlink:href="#ah"/><use transform="matrix(0.0493827160493827,0,0,0.0493827160493827,35.506172839506156,0)" xlink:href="#bc"/></g><g id="H"><use transform="matrix(0.0493827160493827,0,0,0.0493827160493827,0,0)" xlink:href="#J"/><use transform="matrix(0.0493827160493827,0,0,0.0493827160493827,11.851851851851848,0)" xlink:href="#ak"/><use transform="matrix(0.0493827160493827,0,0,0.0493827160493827,26.617283950617274,0)" xlink:href="#W"/><use transform="matrix(0.0493827160493827,0,0,0.0493827160493827,36.493827160493815,0)" xlink:href="#al"/><use transform="matrix(0.0493827160493827,0,0,0.0493827160493827,45.3827160493827,0)" xlink:href="#ad"/><use transform="matrix(0.0493827160493827,0,0,0.0493827160493827,55.25925925925924,0)" xlink:href="#ae"/></g><g id="I"><use transform="matrix(0.0493827160493827,0,0,0.0493827160493827,0,0)" xlink:href="#au"/><use transform="matrix(0.0493827160493827,0,0,0.0493827160493827,11.851851851851848,0)" xlink:href="#O"/><use transform="matrix(0.0493827160493827,0,0,0.0493827160493827,24.641975308641968,0)" xlink:href="#ag"/></g></defs></g></svg>